<svg width="156" height="74" viewBox="0 0 156 74" fill="none" xmlns="http://www.w3.org/2000/svg">
<path d="M14.1701 66V65.3839C14.8683 65.3428 15.392 65.2607 15.7411 65.1375C16.1108 65.0143 16.3572 64.7678 16.4804 64.3982C16.6036 64.0285 16.6653 63.474 16.6653 62.7347V47.4557C16.6653 46.6958 16.6036 46.1413 16.4804 45.7922C16.3572 45.4226 16.1108 45.1761 15.7411 45.0529C15.392 44.9092 14.8683 44.827 14.1701 44.8065V44.1904C14.6424 44.2109 15.238 44.2315 15.9568 44.252C16.6755 44.2725 17.384 44.2828 18.0823 44.2828C18.8832 44.2828 19.6328 44.2725 20.331 44.252C21.0292 44.2315 21.594 44.2109 22.0252 44.1904V44.8065C21.327 44.827 20.7931 44.9092 20.4234 45.0529C20.0743 45.1761 19.8381 45.4226 19.7149 45.7922C19.5917 46.1413 19.5301 46.6958 19.5301 47.4557V62.7347C19.5301 63.474 19.5917 64.0285 19.7149 64.3982C19.8381 64.7678 20.0743 65.0143 20.4234 65.1375C20.7931 65.2607 21.327 65.3428 22.0252 65.3839V66C21.594 65.9589 21.0292 65.9384 20.331 65.9384C19.6328 65.9179 18.8832 65.9076 18.0823 65.9076C17.384 65.9076 16.6755 65.9179 15.9568 65.9384C15.238 65.9384 14.6424 65.9589 14.1701 66ZM1.29379 66V65.3839C1.99203 65.3428 2.5157 65.2607 2.86482 65.1375C3.23448 65.0143 3.48091 64.7678 3.60413 64.3982C3.72735 64.0285 3.78896 63.474 3.78896 62.7347V47.4557C3.78896 46.6958 3.72735 46.1413 3.60413 45.7922C3.48091 45.4226 3.23448 45.1761 2.86482 45.0529C2.5157 44.9092 1.99203 44.827 1.29379 44.8065V44.1904C1.72505 44.2109 2.2898 44.2315 2.98804 44.252C3.68628 44.2725 4.43585 44.2828 5.23677 44.2828C5.95554 44.2828 6.66405 44.2725 7.36228 44.252C8.08106 44.2315 8.67661 44.2109 9.14895 44.1904V44.8065C8.45071 44.827 7.91677 44.9092 7.54711 45.0529C7.19799 45.1761 6.96183 45.4226 6.83861 45.7922C6.71539 46.1413 6.65378 46.6958 6.65378 47.4557V62.7347C6.65378 63.474 6.71539 64.0285 6.83861 64.3982C6.96183 64.7678 7.19799 65.0143 7.54711 65.1375C7.91677 65.2607 8.45071 65.3428 9.14895 65.3839V66C8.67661 65.9589 8.08106 65.9384 7.36228 65.9384C6.66405 65.9179 5.95554 65.9076 5.23677 65.9076C4.43585 65.9076 3.68628 65.9179 2.98804 65.9384C2.2898 65.9384 1.72505 65.9589 1.29379 66ZM5.57562 55.3416V54.7255H17.7434V55.3416H5.57562ZM28.4311 66.2156C27.5892 66.2156 26.8601 66.0616 26.244 65.7536C25.6279 65.425 25.1556 64.9732 24.827 64.3982C24.519 63.8231 24.3649 63.1557 24.3649 62.3959C24.3649 61.4923 24.5703 60.753 24.981 60.1779C25.4123 59.6029 25.9565 59.1409 26.6137 58.7917C27.2708 58.4426 27.9588 58.1551 28.6776 57.9292C29.4169 57.6828 30.1151 57.4569 30.7723 57.2515C31.4295 57.0256 31.9634 56.7689 32.3741 56.4814C32.8054 56.1939 33.021 55.814 33.021 55.3416V53.4317C33.021 52.5692 32.8875 51.9121 32.6206 51.4603C32.3741 51.0085 32.0353 50.7107 31.604 50.5669C31.1727 50.4026 30.6901 50.3205 30.1562 50.3205C29.6428 50.3205 29.0883 50.3924 28.4928 50.5361C27.9177 50.6799 27.4557 50.9777 27.1065 51.4295C27.4967 51.5116 27.8356 51.717 28.1231 52.0455C28.4106 52.3741 28.5544 52.7951 28.5544 53.3085C28.5544 53.8219 28.3901 54.2327 28.0615 54.5407C27.7329 54.8282 27.3119 54.972 26.7985 54.972C26.2029 54.972 25.7614 54.7871 25.4739 54.4175C25.2069 54.0273 25.0734 53.596 25.0734 53.1237C25.0734 52.5898 25.2069 52.1585 25.4739 51.8299C25.7409 51.5013 26.0797 51.1933 26.4905 50.9058C26.9628 50.5772 27.5686 50.3 28.3079 50.0741C29.0678 49.8276 29.92 49.7044 30.8647 49.7044C31.7067 49.7044 32.4255 49.8071 33.021 50.0124C33.6166 50.1973 34.1094 50.4745 34.4996 50.8442C35.0336 51.337 35.3827 51.9429 35.547 52.6616C35.7113 53.3599 35.7934 54.2019 35.7934 55.1876V63.7513C35.7934 64.2647 35.8653 64.6343 36.0091 64.8602C36.1734 65.0861 36.4198 65.1991 36.7484 65.1991C36.9743 65.1991 37.1899 65.1477 37.3953 65.0451C37.6006 64.9424 37.8471 64.7781 38.1346 64.5522L38.4734 65.0759C38.0422 65.4044 37.6314 65.6817 37.2412 65.9076C36.8511 66.1129 36.3274 66.2156 35.6702 66.2156C35.0747 66.2156 34.5818 66.1129 34.1916 65.9076C33.8014 65.7022 33.5036 65.4044 33.2983 65.0143C33.1134 64.6035 33.021 64.0901 33.021 63.474C32.4665 64.3982 31.7991 65.0861 31.0187 65.5379C30.2589 65.9897 29.3964 66.2156 28.4311 66.2156ZM29.5401 64.9835C30.2178 64.9835 30.8442 64.7884 31.4192 64.3982C32.0147 64.008 32.5487 63.4227 33.021 62.6423V56.6046C32.7746 56.9537 32.4152 57.2515 31.9429 57.4979C31.4705 57.7238 30.9571 57.96 30.4026 58.2065C29.8482 58.4324 29.3142 58.7096 28.8008 59.0382C28.3079 59.3462 27.8972 59.7569 27.5686 60.2704C27.24 60.7838 27.0757 61.4512 27.0757 62.2727C27.0757 63.0941 27.2914 63.7513 27.7226 64.2441C28.1744 64.737 28.7803 64.9835 29.5401 64.9835ZM49.7493 49.7044C50.5297 49.7044 51.1766 49.8071 51.69 50.0124C52.224 50.2178 52.6655 50.5053 53.0146 50.875C53.4048 51.2857 53.682 51.7991 53.8463 52.4152C54.0106 53.0313 54.0928 53.863 54.0928 54.9104V63.1352C54.0928 63.9977 54.2673 64.583 54.6164 64.891C54.9861 65.1991 55.5919 65.3531 56.4339 65.3531V66C56.0848 65.9795 55.5509 65.9589 54.8321 65.9384C54.1133 65.8973 53.4151 65.8768 52.7374 65.8768C52.0597 65.8768 51.3922 65.8973 50.7351 65.9384C50.0984 65.9589 49.6158 65.9795 49.2873 66V65.3531C50.0266 65.3531 50.5502 65.1991 50.8583 64.891C51.1663 64.583 51.3204 63.9977 51.3204 63.1352V54.2327C51.3204 53.596 51.269 53.0108 51.1663 52.4768C51.0637 51.9429 50.8275 51.5116 50.4578 51.183C50.1087 50.8544 49.5645 50.6901 48.8252 50.6901C47.9627 50.6901 47.2028 50.9366 46.5457 51.4295C45.909 51.9223 45.4059 52.6 45.0362 53.4626C44.6871 54.3045 44.5126 55.2492 44.5126 56.2966V63.1352C44.5126 63.9977 44.6666 64.583 44.9746 64.891C45.2827 65.1991 45.8063 65.3531 46.5457 65.3531V66C46.2171 65.9795 45.7242 65.9589 45.067 65.9384C44.4304 65.8973 43.7732 65.8768 43.0955 65.8768C42.4178 65.8768 41.7196 65.8973 41.0008 65.9384C40.2821 65.9589 39.7481 65.9795 39.399 66V65.3531C40.241 65.3531 40.8365 65.1991 41.1857 64.891C41.5553 64.583 41.7401 63.9977 41.7401 63.1352V53.4934C41.7401 52.5692 41.5759 51.8915 41.2473 51.4603C40.9187 51.0085 40.3026 50.7826 39.399 50.7826V50.1357C40.0562 50.1973 40.6928 50.2281 41.3089 50.2281C41.9044 50.2281 42.4692 50.1973 43.0031 50.1357C43.5576 50.0535 44.0608 49.9406 44.5126 49.7968V53.4317C45.0465 52.0353 45.7858 51.0701 46.7305 50.5361C47.6957 49.9816 48.702 49.7044 49.7493 49.7044ZM71.7955 41.8492V62.6423C71.7955 63.5664 71.9598 64.2544 72.2884 64.7062C72.6375 65.1375 73.2536 65.3531 74.1367 65.3531V66C73.5 65.9384 72.8634 65.9076 72.2268 65.9076C71.6312 65.9076 71.0562 65.9384 70.5017 66C69.9678 66.0616 69.4749 66.1746 69.0231 66.3388V45.5458C69.0231 44.6216 68.8588 43.9439 68.5302 43.5127C68.2017 43.0609 67.5856 42.835 66.682 42.835V42.1881C67.3391 42.2497 67.9758 42.2805 68.5918 42.2805C69.1874 42.2805 69.7521 42.2497 70.2861 42.1881C70.8406 42.1059 71.3437 41.993 71.7955 41.8492ZM65.3266 49.7044C66.2302 49.7044 67.0722 49.92 67.8525 50.3513C68.6535 50.7826 69.1874 51.5219 69.4544 52.5692L69.0539 52.8773C68.7664 52.0147 68.3146 51.3884 67.6985 50.9982C67.103 50.608 66.3945 50.4129 65.573 50.4129C64.3614 50.4129 63.3448 51.0393 62.5233 52.292C61.7224 53.5447 61.3322 55.4751 61.3528 58.0832C61.3528 59.7467 61.5068 61.1329 61.8148 62.2418C62.1434 63.3303 62.6158 64.1517 63.2319 64.7062C63.8685 65.2402 64.6386 65.5071 65.5422 65.5071C66.4047 65.5071 67.1851 65.1375 67.8833 64.3982C68.5816 63.6589 69.0026 62.5704 69.1463 61.1329L69.516 61.5641C69.3517 63.1249 68.8485 64.3263 68.0066 65.1683C67.1851 66.0103 66.0659 66.4313 64.6489 66.4313C63.3756 66.4313 62.2564 66.1232 61.2912 65.5071C60.3465 64.891 59.6175 63.9669 59.104 62.7347C58.6112 61.5025 58.3647 59.952 58.3647 58.0832C58.3647 56.2144 58.683 54.6639 59.3197 53.4317C59.9768 52.179 60.8291 51.2446 61.8765 50.6285C62.9443 50.0124 64.0944 49.7044 65.3266 49.7044ZM79.1903 42.4345C79.7242 42.4345 80.1863 42.6296 80.5765 43.0198C80.9667 43.41 81.1618 43.8721 81.1618 44.406C81.1618 44.94 80.9667 45.402 80.5765 45.7922C80.1863 46.1824 79.7242 46.3775 79.1903 46.3775C78.6563 46.3775 78.1943 46.1824 77.8041 45.7922C77.4139 45.402 77.2188 44.94 77.2188 44.406C77.2188 43.8721 77.4139 43.41 77.8041 43.0198C78.1943 42.6296 78.6563 42.4345 79.1903 42.4345ZM80.7921 49.7968V63.1352C80.7921 63.9977 80.9667 64.583 81.3158 64.891C81.6854 65.1991 82.2913 65.3531 83.1333 65.3531V66C82.7841 65.9795 82.2502 65.9589 81.5314 65.9384C80.8332 65.8973 80.1247 65.8768 79.4059 65.8768C78.7077 65.8768 77.9992 65.8973 77.2804 65.9384C76.5616 65.9589 76.0277 65.9795 75.6786 66V65.3531C76.5206 65.3531 77.1161 65.1991 77.4652 64.891C77.8349 64.583 78.0197 63.9977 78.0197 63.1352V53.4934C78.0197 52.5692 77.8554 51.8915 77.5268 51.4603C77.1983 51.0085 76.5822 50.7826 75.6786 50.7826V50.1357C76.3357 50.1973 76.9724 50.2281 77.5884 50.2281C78.184 50.2281 78.7488 50.1973 79.2827 50.1357C79.8372 50.0535 80.3403 49.9406 80.7921 49.7968ZM92.4045 49.7044C93.0616 49.7044 93.6983 49.7865 94.3144 49.9508C94.9304 50.1151 95.4849 50.3616 95.9778 50.6901C96.4501 50.9982 96.8095 51.3576 97.056 51.7683C97.3024 52.1585 97.4256 52.5898 97.4256 53.0621C97.4256 53.6166 97.2716 54.0478 96.9635 54.3559C96.6555 54.6434 96.2653 54.7871 95.793 54.7871C95.3412 54.7871 94.9407 54.6537 94.5916 54.3867C94.263 54.1197 94.0987 53.7398 94.0987 53.2469C94.0987 52.7746 94.2219 52.3947 94.4684 52.1072C94.7353 51.8196 95.0434 51.6348 95.3925 51.5527C95.1871 51.183 94.8175 50.875 94.2835 50.6285C93.7701 50.3821 93.2157 50.2589 92.6201 50.2589C92.1067 50.2589 91.5933 50.3821 91.0799 50.6285C90.5665 50.875 90.0941 51.2857 89.6629 51.8607C89.2316 52.4152 88.8825 53.1853 88.6155 54.1711C88.3485 55.1363 88.2151 56.3479 88.2151 57.806C88.2151 59.6132 88.4204 61.0507 88.8311 62.1186C89.2419 63.1865 89.7758 63.9566 90.433 64.429C91.1107 64.8808 91.85 65.1067 92.6509 65.1067C93.1849 65.1067 93.7291 65.004 94.2835 64.7986C94.838 64.5933 95.3617 64.2647 95.8546 63.8129C96.3475 63.3405 96.7684 62.7142 97.1176 61.9338L97.7029 62.1494C97.4975 62.8066 97.1586 63.474 96.6863 64.1517C96.214 64.8089 95.5979 65.3531 94.838 65.7844C94.0782 66.2156 93.1438 66.4313 92.0348 66.4313C90.7616 66.4313 89.6115 66.1027 88.5847 65.4455C87.5579 64.7884 86.7364 63.854 86.1203 62.6423C85.5248 61.4101 85.227 59.952 85.227 58.2681C85.227 56.5841 85.5248 55.1055 86.1203 53.8322C86.7364 52.5384 87.5887 51.5321 88.6771 50.8134C89.7655 50.0741 91.008 49.7044 92.4045 49.7044ZM109.265 49.7044C109.819 49.7044 110.302 49.8173 110.712 50.0432C111.144 50.2691 111.472 50.5669 111.698 50.9366C111.945 51.2857 112.068 51.6862 112.068 52.138C112.068 52.6514 111.904 53.1032 111.575 53.4934C111.267 53.8835 110.846 54.0786 110.312 54.0786C109.881 54.0786 109.501 53.9452 109.172 53.6782C108.844 53.3907 108.679 52.9902 108.679 52.4768C108.679 52.0866 108.782 51.758 108.987 51.4911C109.213 51.2036 109.46 50.9777 109.727 50.8134C109.583 50.608 109.367 50.5053 109.08 50.5053C108.443 50.5053 107.858 50.7004 107.324 51.0906C106.79 51.4603 106.338 51.9429 105.969 52.5384C105.599 53.134 105.311 53.7706 105.106 54.4483C104.901 55.1055 104.798 55.7216 104.798 56.2966V62.8271C104.798 63.8334 105.086 64.5111 105.661 64.8602C106.256 65.1888 107.057 65.3531 108.063 65.3531V66C107.591 65.9795 106.924 65.9589 106.061 65.9384C105.198 65.8973 104.285 65.8768 103.319 65.8768C102.621 65.8768 101.923 65.8973 101.225 65.9384C100.547 65.9589 100.034 65.9795 99.6844 66V65.3531C100.526 65.3531 101.122 65.1991 101.471 64.891C101.841 64.583 102.026 63.9977 102.026 63.1352V53.4934C102.026 52.5692 101.861 51.8915 101.533 51.4603C101.204 51.0085 100.588 50.7826 99.6844 50.7826V50.1357C100.342 50.1973 100.978 50.2281 101.594 50.2281C102.19 50.2281 102.755 50.1973 103.289 50.1357C103.843 50.0535 104.346 49.9406 104.798 49.7968V53.6474C105.024 53.0518 105.342 52.4563 105.753 51.8607C106.184 51.2446 106.698 50.7312 107.293 50.3205C107.889 49.9098 108.546 49.7044 109.265 49.7044ZM117.776 66.2156C116.934 66.2156 116.205 66.0616 115.589 65.7536C114.973 65.425 114.501 64.9732 114.172 64.3982C113.864 63.8231 113.71 63.1557 113.71 62.3959C113.71 61.4923 113.916 60.753 114.326 60.1779C114.757 59.6029 115.302 59.1409 115.959 58.7917C116.616 58.4426 117.304 58.1551 118.023 57.9292C118.762 57.6828 119.46 57.4569 120.117 57.2515C120.775 57.0256 121.309 56.7689 121.719 56.4814C122.151 56.1939 122.366 55.814 122.366 55.3416V53.4317C122.366 52.5692 122.233 51.9121 121.966 51.4603C121.719 51.0085 121.38 50.7107 120.949 50.5669C120.518 50.4026 120.035 50.3205 119.501 50.3205C118.988 50.3205 118.434 50.3924 117.838 50.5361C117.263 50.6799 116.801 50.9777 116.452 51.4295C116.842 51.5116 117.181 51.717 117.468 52.0455C117.756 52.3741 117.9 52.7951 117.9 53.3085C117.9 53.8219 117.735 54.2327 117.407 54.5407C117.078 54.8282 116.657 54.972 116.144 54.972C115.548 54.972 115.107 54.7871 114.819 54.4175C114.552 54.0273 114.419 53.596 114.419 53.1237C114.419 52.5898 114.552 52.1585 114.819 51.8299C115.086 51.5013 115.425 51.1933 115.836 50.9058C116.308 50.5772 116.914 50.3 117.653 50.0741C118.413 49.8276 119.265 49.7044 120.21 49.7044C121.052 49.7044 121.771 49.8071 122.366 50.0124C122.962 50.1973 123.455 50.4745 123.845 50.8442C124.379 51.337 124.728 51.9429 124.892 52.6616C125.056 53.3599 125.139 54.2019 125.139 55.1876V63.7513C125.139 64.2647 125.211 64.6343 125.354 64.8602C125.519 65.0861 125.765 65.1991 126.094 65.1991C126.319 65.1991 126.535 65.1477 126.74 65.0451C126.946 64.9424 127.192 64.7781 127.48 64.5522L127.819 65.0759C127.387 65.4044 126.977 65.6817 126.586 65.9076C126.196 66.1129 125.673 66.2156 125.015 66.2156C124.42 66.2156 123.927 66.1129 123.537 65.9076C123.147 65.7022 122.849 65.4044 122.643 65.0143C122.459 64.6035 122.366 64.0901 122.366 63.474C121.812 64.3982 121.144 65.0861 120.364 65.5379C119.604 65.9897 118.742 66.2156 117.776 66.2156ZM118.885 64.9835C119.563 64.9835 120.189 64.7884 120.764 64.3982C121.36 64.008 121.894 63.4227 122.366 62.6423V56.6046C122.12 56.9537 121.76 57.2515 121.288 57.4979C120.816 57.7238 120.302 57.96 119.748 58.2065C119.193 58.4324 118.659 58.7096 118.146 59.0382C117.653 59.3462 117.242 59.7569 116.914 60.2704C116.585 60.7838 116.421 61.4512 116.421 62.2727C116.421 63.0941 116.637 63.7513 117.068 64.2441C117.52 64.737 118.125 64.9835 118.885 64.9835ZM136.353 41.9108C136.928 41.9108 137.431 41.993 137.862 42.1573C138.314 42.301 138.704 42.4961 139.033 42.7426C139.341 42.989 139.577 43.2765 139.741 43.6051C139.906 43.9337 139.988 44.2828 139.988 44.6525C139.988 45.1248 139.834 45.515 139.526 45.823C139.218 46.1311 138.828 46.2851 138.355 46.2851C137.903 46.2851 137.503 46.1413 137.154 45.8538C136.825 45.5458 136.661 45.1351 136.661 44.6216C136.661 44.1904 136.774 43.8413 137 43.5743C137.246 43.3073 137.565 43.1328 137.955 43.0506C137.893 42.8658 137.729 42.7118 137.462 42.5885C137.215 42.4448 136.877 42.3729 136.445 42.3729C135.973 42.3729 135.562 42.4756 135.213 42.681C134.885 42.8863 134.628 43.1636 134.443 43.5127C134.197 43.9439 134.043 44.5908 133.981 45.4534C133.919 46.2954 133.889 47.5994 133.889 49.3655V50.1665H137.185V50.7826H133.889V62.8271C133.889 63.8334 134.176 64.5111 134.751 64.8602C135.347 65.1888 136.148 65.3531 137.154 65.3531V66C136.682 65.9795 136.014 65.9589 135.152 65.9384C134.289 65.8973 133.375 65.8768 132.41 65.8768C131.712 65.8768 131.013 65.8973 130.315 65.9384C129.638 65.9589 129.124 65.9795 128.775 66V65.3531C129.617 65.3531 130.213 65.1991 130.562 64.891C130.931 64.583 131.116 63.9977 131.116 63.1352V50.7826H128.652V50.1665H131.116C131.116 48.9548 131.167 47.9383 131.27 47.1168C131.373 46.2954 131.537 45.5971 131.763 45.0221C131.989 44.4266 132.297 43.9029 132.687 43.4511C133.098 42.9787 133.622 42.6091 134.258 42.3421C134.895 42.0546 135.593 41.9108 136.353 41.9108ZM143.932 45.0221V50.1665H148.491V50.7826H143.932V62.7039C143.932 63.6691 144.106 64.3468 144.455 64.737C144.805 65.1272 145.287 65.3223 145.903 65.3223C146.519 65.3223 147.053 65.0759 147.505 64.583C147.957 64.0696 148.347 63.2173 148.676 62.0262L149.292 62.1802C149.086 63.3713 148.676 64.3776 148.06 65.1991C147.464 66.0205 146.54 66.4313 145.287 66.4313C144.589 66.4313 144.014 66.3388 143.562 66.154C143.11 65.9897 142.71 65.7433 142.361 65.4147C141.909 64.9424 141.591 64.3776 141.406 63.7205C141.242 63.0633 141.159 62.1905 141.159 61.1021V50.7826H138.202V50.1665H141.159V45.4534C141.673 45.4328 142.166 45.3918 142.638 45.3302C143.11 45.2685 143.542 45.1659 143.932 45.0221Z" fill="#5C3C1E"/>
<path d="M7.88596 10.8515C8.91278 10.8515 9.69316 10.9748 10.2271 11.2212C10.7611 11.4471 11.2334 11.7038 11.6441 11.9913C11.8906 12.1351 12.0856 12.248 12.2294 12.3302C12.3937 12.3918 12.5477 12.4226 12.6915 12.4226C12.8968 12.4226 13.0406 12.3096 13.1227 12.0837C13.2254 11.8578 13.3076 11.519 13.3692 11.0672H14.0777C14.0571 11.4163 14.0263 11.8373 13.9853 12.3302C13.9647 12.8025 13.9442 13.4391 13.9237 14.24C13.9237 15.0204 13.9237 16.0575 13.9237 17.3513H13.2151C13.1535 16.3655 12.9379 15.4209 12.5683 14.5173C12.1986 13.6137 11.6544 12.8744 10.9356 12.2993C10.2374 11.7243 9.31324 11.4368 8.1632 11.4368C7.07478 11.4368 6.17118 11.7654 5.4524 12.4226C4.75417 13.0797 4.40505 13.9423 4.40505 15.0101C4.40505 15.9343 4.64122 16.7147 5.11355 17.3513C5.58589 17.9674 6.21225 18.5321 6.99263 19.0455C7.79355 19.5384 8.65608 20.0724 9.58021 20.6474C10.6481 21.3045 11.5928 21.9617 12.4142 22.6189C13.2562 23.2555 13.9134 23.964 14.3857 24.7444C14.8786 25.5248 15.125 26.4694 15.125 27.5784C15.125 28.8927 14.8273 29.9812 14.2317 30.8437C13.6361 31.7062 12.8455 32.3531 11.8597 32.7844C10.874 33.2156 9.78558 33.4313 8.59447 33.4313C7.50604 33.4313 6.64351 33.308 6.00689 33.0616C5.37026 32.8152 4.82604 32.5585 4.37424 32.2915C3.92244 32.004 3.57333 31.8602 3.32689 31.8602C3.12153 31.8602 2.9675 31.9732 2.86482 32.1991C2.78268 32.425 2.7108 32.7638 2.64919 33.2156H1.94069C1.98176 32.7844 2.0023 32.2812 2.0023 31.7062C2.02283 31.1107 2.0331 30.3405 2.0331 29.3959C2.05364 28.4512 2.0639 27.2601 2.0639 25.8225H2.77241C2.85455 27.0547 3.08045 28.2048 3.45011 29.2727C3.8403 30.3405 4.42559 31.2031 5.20597 31.8602C6.00689 32.4969 7.06451 32.8152 8.37883 32.8152C9.05653 32.8152 9.69316 32.6817 10.2887 32.4147C10.9048 32.1272 11.4079 31.6857 11.7981 31.0901C12.1883 30.474 12.3834 29.6834 12.3834 28.7182C12.3834 27.8762 12.1781 27.1471 11.7673 26.531C11.3771 25.8944 10.8227 25.3091 10.1039 24.7752C9.38512 24.2207 8.54313 23.656 7.57792 23.0809C6.61271 22.4854 5.70911 21.8796 4.86712 21.2635C4.02513 20.6474 3.34743 19.9389 2.83402 19.138C2.34115 18.3165 2.09471 17.3308 2.09471 16.1807C2.09471 14.9691 2.36168 13.9731 2.89563 13.1927C3.45011 12.3918 4.16888 11.8065 5.05194 11.4368C5.93501 11.0466 6.87968 10.8515 7.88596 10.8515ZM15.8347 38.7913V38.3292C17.108 38.2676 18.0629 37.7131 18.6996 36.6657C19.3362 35.6389 19.6545 34.2219 19.6545 32.4147V20.4934C19.6545 19.5692 19.4902 18.8915 19.1616 18.4603C18.833 18.0085 18.217 17.7826 17.3134 17.7826V17.1357C17.9705 17.1973 18.6071 17.2281 19.2232 17.2281C19.8188 17.2281 20.3835 17.1973 20.9175 17.1357C21.472 17.0535 21.9751 16.9406 22.4269 16.7968V29.4575C22.4269 30.4843 22.355 31.4598 22.2113 32.3839C22.0675 33.308 21.8314 34.15 21.5028 34.9099C21.1742 35.6697 20.7429 36.3372 20.209 36.9122C19.6956 37.4667 19.0589 37.9185 18.2991 38.2676C17.5598 38.6167 16.7383 38.7913 15.8347 38.7913ZM20.7635 9.43453C21.2974 9.43453 21.7595 9.62962 22.1497 10.0198C22.5399 10.41 22.735 10.8721 22.735 11.406C22.735 11.94 22.5399 12.402 22.1497 12.7922C21.7595 13.1824 21.2974 13.3775 20.7635 13.3775C20.2295 13.3775 19.7674 13.1824 19.3773 12.7922C18.9871 12.402 18.792 11.94 18.792 11.406C18.792 10.8721 18.9871 10.41 19.3773 10.0198C19.7674 9.62962 20.2295 9.43453 20.7635 9.43453ZM30.1158 33.2156C29.2738 33.2156 28.5447 33.0616 27.9286 32.7536C27.3126 32.425 26.8402 31.9732 26.5116 31.3982C26.2036 30.8231 26.0496 30.1557 26.0496 29.3959C26.0496 28.4923 26.2549 27.753 26.6657 27.1779C27.0969 26.6029 27.6411 26.1409 28.2983 25.7917C28.9555 25.4426 29.6434 25.1551 30.3622 24.9292C31.1015 24.6828 31.7997 24.4569 32.4569 24.2515C33.1141 24.0256 33.648 23.7689 34.0588 23.4814C34.49 23.1939 34.7056 22.814 34.7056 22.3416V20.4317C34.7056 19.5692 34.5722 18.9121 34.3052 18.4603C34.0587 18.0085 33.7199 17.7107 33.2886 17.5669C32.8574 17.4026 32.3748 17.3205 31.8408 17.3205C31.3274 17.3205 30.7729 17.3924 30.1774 17.5361C29.6024 17.6799 29.1403 17.9777 28.7912 18.4295C29.1814 18.5116 29.5202 18.717 29.8077 19.0455C30.0952 19.3741 30.239 19.7951 30.239 20.3085C30.239 20.8219 30.0747 21.2327 29.7461 21.5407C29.4175 21.8282 28.9965 21.972 28.4831 21.972C27.8876 21.972 27.446 21.7871 27.1585 21.4175C26.8916 21.0273 26.7581 20.596 26.7581 20.1237C26.7581 19.5898 26.8916 19.1585 27.1585 18.8299C27.4255 18.5013 27.7644 18.1933 28.1751 17.9058C28.6474 17.5772 29.2532 17.3 29.9926 17.0741C30.7524 16.8276 31.6047 16.7044 32.5493 16.7044C33.3913 16.7044 34.1101 16.8071 34.7056 17.0124C35.3012 17.1973 35.7941 17.4745 36.1843 17.8442C36.7182 18.337 37.0673 18.9429 37.2316 19.6616C37.3959 20.3599 37.4781 21.2019 37.4781 22.1876V30.7513C37.4781 31.2647 37.5499 31.6343 37.6937 31.8602C37.858 32.0861 38.1044 32.1991 38.433 32.1991C38.6589 32.1991 38.8745 32.1477 39.0799 32.0451C39.2853 31.9424 39.5317 31.7781 39.8192 31.5522L40.158 32.0759C39.7268 32.4044 39.3161 32.6817 38.9259 32.9076C38.5357 33.1129 38.012 33.2156 37.3548 33.2156C36.7593 33.2156 36.2664 33.1129 35.8762 32.9076C35.486 32.7022 35.1882 32.4044 34.9829 32.0143C34.7981 31.6035 34.7056 31.0901 34.7056 30.474C34.1512 31.3982 33.4837 32.0861 32.7034 32.5379C31.9435 32.9897 31.081 33.2156 30.1158 33.2156ZM31.2247 31.9835C31.9024 31.9835 32.5288 31.7884 33.1038 31.3982C33.6994 31.008 34.2333 30.4227 34.7056 29.6423V23.6046C34.4592 23.9537 34.0998 24.2515 33.6275 24.4979C33.1552 24.7238 32.6417 24.96 32.0873 25.2065C31.5328 25.4324 30.9988 25.7096 30.4854 26.0382C29.9926 26.3462 29.5818 26.7569 29.2532 27.2704C28.9247 27.7838 28.7604 28.4512 28.7604 29.2727C28.7604 30.0941 28.976 30.7513 29.4073 31.2441C29.8591 31.737 30.4649 31.9835 31.2247 31.9835ZM45.9199 8.88004V20.4009C46.4539 19.0045 47.1932 18.0393 48.1379 17.5053C49.1031 16.9714 50.1094 16.7044 51.1567 16.7044C51.9371 16.7044 52.584 16.8071 53.0974 17.0124C53.6313 17.2178 54.0729 17.5053 54.422 17.875C54.8122 18.2857 55.0894 18.7991 55.2537 19.4152C55.418 20.0313 55.5002 20.863 55.5002 21.9104V30.1352C55.5002 30.9977 55.6747 31.583 56.0238 31.891C56.3935 32.1991 56.9993 32.3531 57.8413 32.3531V33C57.4922 32.9795 56.9582 32.9589 56.2395 32.9384C55.5207 32.8973 54.8225 32.8768 54.1448 32.8768C53.4671 32.8768 52.7996 32.8973 52.1425 32.9384C51.5058 32.9589 51.0232 32.9795 50.6946 33V32.3531C51.434 32.3531 51.9576 32.1991 52.2657 31.891C52.5737 31.583 52.7277 30.9977 52.7277 30.1352V21.2327C52.7277 20.596 52.6764 20.0108 52.5737 19.4768C52.471 18.9429 52.2349 18.5116 51.8652 18.183C51.5161 17.8544 50.9719 17.6901 50.2326 17.6901C49.3906 17.6901 48.641 17.9263 47.9838 18.3986C47.3472 18.871 46.8441 19.5281 46.4744 20.3701C46.1048 21.2121 45.9199 22.1773 45.9199 23.2658V30.1352C45.9199 30.9977 46.074 31.583 46.382 31.891C46.6901 32.1991 47.2137 32.3531 47.953 32.3531V33C47.6245 32.9795 47.1316 32.9589 46.4744 32.9384C45.8378 32.8973 45.1806 32.8768 44.5029 32.8768C43.8252 32.8768 43.127 32.8973 42.4082 32.9384C41.6895 32.9589 41.1555 32.9795 40.8064 33V32.3531C41.6484 32.3531 42.2439 32.1991 42.5931 31.891C42.9627 31.583 43.1475 30.9977 43.1475 30.1352V12.5766C43.1475 11.6525 42.9832 10.9748 42.6547 10.5435C42.3261 10.0917 41.71 9.86579 40.8064 9.86579V9.2189C41.4636 9.2805 42.1002 9.31131 42.7163 9.31131C43.3118 9.31131 43.8766 9.2805 44.4105 9.2189C44.965 9.13675 45.4681 9.0238 45.9199 8.88004ZM64.0912 8.84924V30.1352C64.0912 30.9977 64.2658 31.583 64.6149 31.891C64.9846 32.1991 65.5904 32.3531 66.4324 32.3531V33C66.0833 32.9795 65.5493 32.9589 64.8306 32.9384C64.1323 32.8973 63.4238 32.8768 62.705 32.8768C62.0068 32.8768 61.2983 32.8973 60.5795 32.9384C59.8608 32.9589 59.3268 32.9795 58.9777 33V32.3531C59.8197 32.3531 60.4152 32.1991 60.7644 31.891C61.134 31.583 61.3188 30.9977 61.3188 30.1352V12.5458C61.3188 11.6216 61.1545 10.9439 60.826 10.5127C60.4974 10.0609 59.8813 9.83499 58.9777 9.83499V9.18809C59.6349 9.2497 60.2715 9.2805 60.8876 9.2805C61.4831 9.2805 62.0479 9.2497 62.5818 9.18809C63.1363 9.10595 63.6394 8.993 64.0912 8.84924ZM75.1922 16.7044C76.9994 16.7044 78.4061 17.2589 79.4124 18.3678C80.4392 19.4563 80.9526 21.1608 80.9526 23.4814H70.0786L70.0478 22.8961H77.9954C78.0365 21.8898 77.9543 20.9657 77.749 20.1237C77.5436 19.2612 77.215 18.5732 76.7632 18.0598C76.332 17.5464 75.7672 17.2897 75.069 17.2897C74.1243 17.2897 73.2823 17.762 72.543 18.7067C71.8242 19.6514 71.393 21.1505 71.2492 23.2042L71.3416 23.3274C71.3006 23.6354 71.2698 23.9743 71.2492 24.3439C71.2287 24.7136 71.2184 25.0832 71.2184 25.4529C71.2184 26.8494 71.4443 28.0507 71.8961 29.057C72.3479 30.0633 72.9332 30.8334 73.652 31.3674C74.3913 31.8808 75.1511 32.1375 75.9315 32.1375C76.5476 32.1375 77.1329 32.0451 77.6874 31.8602C78.2418 31.6549 78.7553 31.3263 79.2276 30.8745C79.6999 30.4227 80.1107 29.8169 80.4598 29.057L81.0759 29.3035C80.85 29.9812 80.4803 30.6383 79.9669 31.2749C79.4535 31.9116 78.8066 32.4353 78.0262 32.846C77.2458 33.2362 76.3422 33.4313 75.3154 33.4313C73.8368 33.4313 72.5635 33.0924 71.4957 32.4147C70.4483 31.737 69.6371 30.8026 69.0621 29.6115C68.5076 28.3999 68.2304 27.0137 68.2304 25.4529C68.2304 23.6457 68.5179 22.0952 69.0929 20.8014C69.6679 19.4871 70.4791 18.4808 71.5265 17.7826C72.5738 17.0638 73.7957 16.7044 75.1922 16.7044ZM93.6398 16.7044C94.4202 16.7044 95.0671 16.8071 95.5805 17.0124C96.1144 17.2178 96.5559 17.5053 96.9051 17.875C97.2953 18.2857 97.5725 18.7991 97.7368 19.4152C97.9011 20.0313 97.9832 20.863 97.9832 21.9104V30.1352C97.9832 30.9977 98.1578 31.583 98.5069 31.891C98.8766 32.1991 99.4824 32.3531 100.324 32.3531V33C99.9752 32.9795 99.4413 32.9589 98.7225 32.9384C98.0038 32.8973 97.3055 32.8768 96.6278 32.8768C95.9501 32.8768 95.2827 32.8973 94.6255 32.9384C93.9889 32.9589 93.5063 32.9795 93.1777 33V32.3531C93.917 32.3531 94.4407 32.1991 94.7487 31.891C95.0568 31.583 95.2108 30.9977 95.2108 30.1352V21.2327C95.2108 20.596 95.1595 20.0108 95.0568 19.4768C94.9541 18.9429 94.7179 18.5116 94.3483 18.183C93.9992 17.8544 93.455 17.6901 92.7156 17.6901C91.8531 17.6901 91.0933 17.9366 90.4361 18.4295C89.7995 18.9223 89.2963 19.6 88.9267 20.4626C88.5776 21.3045 88.403 22.2492 88.403 23.2966V30.1352C88.403 30.9977 88.557 31.583 88.8651 31.891C89.1731 32.1991 89.6968 32.3531 90.4361 32.3531V33C90.1075 32.9795 89.6147 32.9589 88.9575 32.9384C88.3209 32.8973 87.6637 32.8768 86.986 32.8768C86.3083 32.8768 85.6101 32.8973 84.8913 32.9384C84.1725 32.9589 83.6386 32.9795 83.2895 33V32.3531C84.1314 32.3531 84.727 32.1991 85.0761 31.891C85.4458 31.583 85.6306 30.9977 85.6306 30.1352V20.4934C85.6306 19.5692 85.4663 18.8915 85.1377 18.4603C84.8091 18.0085 84.1931 17.7826 83.2895 17.7826V17.1357C83.9466 17.1973 84.5832 17.2281 85.1993 17.2281C85.7949 17.2281 86.3596 17.1973 86.8936 17.1357C87.4481 17.0535 87.9512 16.9406 88.403 16.7968V20.4317C88.937 19.0353 89.6763 18.0701 90.6209 17.5361C91.5861 16.9816 92.5924 16.7044 93.6398 16.7044ZM115.686 8.84924V29.6423C115.686 30.5664 115.85 31.2544 116.179 31.7062C116.528 32.1375 117.144 32.3531 118.027 32.3531V33C117.39 32.9384 116.754 32.9076 116.117 32.9076C115.522 32.9076 114.947 32.9384 114.392 33C113.858 33.0616 113.365 33.1746 112.914 33.3388V12.5458C112.914 11.6216 112.749 10.9439 112.421 10.5127C112.092 10.0609 111.476 9.83499 110.572 9.83499V9.18809C111.23 9.2497 111.866 9.2805 112.482 9.2805C113.078 9.2805 113.643 9.2497 114.177 9.18809C114.731 9.10595 115.234 8.993 115.686 8.84924ZM109.217 16.7044C110.121 16.7044 110.963 16.92 111.743 17.3513C112.544 17.7826 113.078 18.5219 113.345 19.5692L112.944 19.8773C112.657 19.0147 112.205 18.3884 111.589 17.9982C110.993 17.608 110.285 17.4129 109.463 17.4129C108.252 17.4129 107.235 18.0393 106.414 19.292C105.613 20.5447 105.223 22.4751 105.243 25.0832C105.243 26.7467 105.397 28.1329 105.705 29.2418C106.034 30.3303 106.506 31.1517 107.122 31.7062C107.759 32.2402 108.529 32.5071 109.433 32.5071C110.295 32.5071 111.076 32.1375 111.774 31.3982C112.472 30.6589 112.893 29.5704 113.037 28.1329L113.406 28.5641C113.242 30.1249 112.739 31.3263 111.897 32.1683C111.076 33.0103 109.956 33.4313 108.539 33.4313C107.266 33.4313 106.147 33.1232 105.182 32.5071C104.237 31.891 103.508 30.9669 102.994 29.7347C102.502 28.5025 102.255 26.952 102.255 25.0832C102.255 23.2144 102.573 21.6639 103.21 20.4317C103.867 19.179 104.72 18.2446 105.767 17.6285C106.835 17.0124 107.985 16.7044 109.217 16.7044ZM129.149 16.7044C129.704 16.7044 130.186 16.8173 130.597 17.0432C131.028 17.2691 131.357 17.5669 131.583 17.9366C131.829 18.2857 131.952 18.6862 131.952 19.138C131.952 19.6514 131.788 20.1032 131.46 20.4934C131.152 20.8835 130.731 21.0786 130.197 21.0786C129.765 21.0786 129.385 20.9452 129.057 20.6782C128.728 20.3907 128.564 19.9902 128.564 19.4768C128.564 19.0866 128.667 18.758 128.872 18.4911C129.098 18.2036 129.344 17.9777 129.611 17.8134C129.468 17.608 129.252 17.5053 128.964 17.5053C128.328 17.5053 127.742 17.7004 127.209 18.0906C126.675 18.4603 126.223 18.9429 125.853 19.5384C125.483 20.134 125.196 20.7706 124.991 21.4483C124.785 22.1055 124.683 22.7216 124.683 23.2966V29.8271C124.683 30.8334 124.97 31.5111 125.545 31.8602C126.141 32.1888 126.942 32.3531 127.948 32.3531V33C127.476 32.9795 126.808 32.9589 125.946 32.9384C125.083 32.8973 124.169 32.8768 123.204 32.8768C122.506 32.8768 121.807 32.8973 121.109 32.9384C120.432 32.9589 119.918 32.9795 119.569 33V32.3531C120.411 32.3531 121.007 32.1991 121.356 31.891C121.725 31.583 121.91 30.9977 121.91 30.1352V20.4934C121.91 19.5692 121.746 18.8915 121.417 18.4603C121.089 18.0085 120.473 17.7826 119.569 17.7826V17.1357C120.226 17.1973 120.863 17.2281 121.479 17.2281C122.074 17.2281 122.639 17.1973 123.173 17.1357C123.728 17.0535 124.231 16.9406 124.683 16.7968V20.6474C124.908 20.0518 125.227 19.4563 125.638 18.8607C126.069 18.2446 126.582 17.7312 127.178 17.3205C127.773 16.9098 128.43 16.7044 129.149 16.7044ZM137.661 33.2156C136.819 33.2156 136.09 33.0616 135.474 32.7536C134.858 32.425 134.385 31.9732 134.057 31.3982C133.749 30.8231 133.595 30.1557 133.595 29.3959C133.595 28.4923 133.8 27.753 134.211 27.1779C134.642 26.6029 135.186 26.1409 135.843 25.7917C136.501 25.4426 137.189 25.1551 137.907 24.9292C138.647 24.6828 139.345 24.4569 140.002 24.2515C140.659 24.0256 141.193 23.7689 141.604 23.4814C142.035 23.1939 142.251 22.814 142.251 22.3416V20.4317C142.251 19.5692 142.117 18.9121 141.85 18.4603C141.604 18.0085 141.265 17.7107 140.834 17.5669C140.403 17.4026 139.92 17.3205 139.386 17.3205C138.873 17.3205 138.318 17.3924 137.723 17.5361C137.148 17.6799 136.685 17.9777 136.336 18.4295C136.727 18.5116 137.065 18.717 137.353 19.0455C137.64 19.3741 137.784 19.7951 137.784 20.3085C137.784 20.8219 137.62 21.2327 137.291 21.5407C136.963 21.8282 136.542 21.972 136.028 21.972C135.433 21.972 134.991 21.7871 134.704 21.4175C134.437 21.0273 134.303 20.596 134.303 20.1237C134.303 19.5898 134.437 19.1585 134.704 18.8299C134.971 18.5013 135.31 18.1933 135.72 17.9058C136.193 17.5772 136.798 17.3 137.538 17.0741C138.298 16.8276 139.15 16.7044 140.094 16.7044C140.936 16.7044 141.655 16.8071 142.251 17.0124C142.846 17.1973 143.339 17.4745 143.729 17.8442C144.263 18.337 144.612 18.9429 144.777 19.6616C144.941 20.3599 145.023 21.2019 145.023 22.1876V30.7513C145.023 31.2647 145.095 31.6343 145.239 31.8602C145.403 32.0861 145.65 32.1991 145.978 32.1991C146.204 32.1991 146.42 32.1477 146.625 32.0451C146.83 31.9424 147.077 31.7781 147.364 31.5522L147.703 32.0759C147.272 32.4044 146.861 32.6817 146.471 32.9076C146.081 33.1129 145.557 33.2156 144.9 33.2156C144.304 33.2156 143.812 33.1129 143.421 32.9076C143.031 32.7022 142.733 32.4044 142.528 32.0143C142.343 31.6035 142.251 31.0901 142.251 30.474C141.696 31.3982 141.029 32.0861 140.248 32.5379C139.489 32.9897 138.626 33.2156 137.661 33.2156ZM138.77 31.9835C139.448 31.9835 140.074 31.7884 140.649 31.3982C141.245 31.008 141.778 30.4227 142.251 29.6423V23.6046C142.004 23.9537 141.645 24.2515 141.173 24.4979C140.7 24.7238 140.187 24.96 139.632 25.2065C139.078 25.4324 138.544 25.7096 138.031 26.0382C137.538 26.3462 137.127 26.7569 136.798 27.2704C136.47 27.7838 136.306 28.4512 136.306 29.2727C136.306 30.0941 136.521 30.7513 136.952 31.2441C137.404 31.737 138.01 31.9835 138.77 31.9835ZM151.617 29.4883C152.151 29.4883 152.613 29.6834 153.003 30.0736C153.393 30.4638 153.588 30.9258 153.588 31.4598C153.588 31.9937 153.393 32.4558 153.003 32.846C152.613 33.2362 152.151 33.4313 151.617 33.4313C151.083 33.4313 150.621 33.2362 150.231 32.846C149.84 32.4558 149.645 31.9937 149.645 31.4598C149.645 30.9258 149.84 30.4638 150.231 30.0736C150.621 29.6834 151.083 29.4883 151.617 29.4883Z" fill="url(#paint0_linear_923_1259)"/>
<defs>
<linearGradient id="paint0_linear_923_1259" x1="0" y1="20.5" x2="156" y2="20.5" gradientUnits="userSpaceOnUse">
<stop stop-color="#2E2E2E"/>
</linearGradient>
</defs>
</svg>
