<svg width="628" height="862" viewBox="0 0 628 862" fill="none" xmlns="http://www.w3.org/2000/svg">
<path fill-rule="evenodd" clip-rule="evenodd" d="M341.094 861.064C118.32 869.548 36.9506 691.504 135.576 572.152C143.519 562.54 158.303 544.649 253.484 470.21C256.074 468.184 256.361 466.829 258.75 469.086C306.047 513.78 306.783 513.124 309.874 517.856C312.954 522.571 222.638 614.752 250.994 691.757C274.093 754.487 364.126 755.745 390.866 693.641C422.849 619.362 304.78 460.714 235.023 445.979C219.644 442.731 207.984 444.178 180.192 422.582C163.116 409.314 111.616 328.164 115.995 321.664C128.832 302.61 192.663 413.68 238.013 404.267C238.348 404.197 253.084 403.702 246.128 396.676C223.545 373.867 202.691 347.351 201.903 342.775C200.445 334.306 206.713 327.042 208.999 328.861C240.386 353.841 240.208 354.212 276.882 370.197C306.268 383.005 312.677 410.691 314.46 412.337C358.704 453.179 477.594 529.122 514.981 585.785C537.428 619.806 569.958 676.434 514.77 770.536C498.772 797.814 464.893 826.57 422.269 843.222C382.93 858.59 356.54 859.509 341.095 861.063L341.094 861.064Z" fill="#5D3F23"/>
<path fill-rule="evenodd" clip-rule="evenodd" d="M523.631 326.669C511.43 363.551 461.226 436.877 427.116 442.952C416.042 444.924 416.098 443.813 405.157 446.042C391.386 448.848 382.876 456.225 381.195 454.581C362.018 435.824 362.841 435.031 329.357 412.311C329.105 412.14 326.595 410.437 327.552 408.957C348.19 377.024 374.951 364.971 380.056 362.671C421.994 343.782 441.714 317.473 437.737 339.665C433.573 362.901 388.895 399.916 391.162 402.656C392.678 404.489 416.141 407.441 426.854 402.222C460.799 385.686 519.72 302.441 523.631 326.669Z" fill="#745624"/>
<path fill-rule="evenodd" clip-rule="evenodd" d="M408.078 208.749C388.984 217.547 376.217 270.072 357.073 272.666C355.364 272.898 353.462 272.674 351.903 251.743C345.949 171.803 406.291 175.531 428.883 165.26C447.583 156.759 455.649 147.055 453.874 159.697C447.344 206.2 461.446 255.549 415.912 278.363C402.914 284.876 357.732 292.59 369.444 285.184C404.094 263.273 387.053 236.574 409.175 210.758C409.143 210.177 409.111 209.595 409.079 209.014C408.745 208.926 408.412 208.837 408.078 208.749Z" fill="#AACB5F"/>
<path fill-rule="evenodd" clip-rule="evenodd" d="M295.343 216.814C291.445 225.088 289.621 223.149 289.154 222.653C241.544 172.073 261.413 141.016 265.333 134.888C281.799 109.151 291.284 107.234 304.803 80.5765C307.086 76.0745 308.632 73.4435 310.85 77.8495C347.968 151.558 381.824 171.921 310.085 228.733C302.84 234.47 317.203 217.635 313.132 195.716C309.819 177.874 296.963 156.283 302.89 144.715C304.597 141.384 300.359 142.013 299.282 145.814C294.616 162.284 296.016 172.183 297.572 190.682C298.692 203.998 299.325 204 295.343 216.814Z" fill="#16A09A"/>
<path fill-rule="evenodd" clip-rule="evenodd" d="M154.998 199.699C154.644 199.93 154.29 200.161 153.936 200.392C150.123 200.007 157.927 189.512 116.987 169.911C107.452 165.346 96.1762 148.909 102.195 160.683C111.649 179.175 145.18 197.882 141.413 209.91C141.325 210.19 87.0292 217.407 77.8542 174.777C72.0102 147.626 78.4582 146.368 67.4012 115.704C66.1582 112.257 69.6002 114.286 112.182 125.304C166.077 139.25 155.168 172.088 154.999 199.698L154.998 199.699Z" fill="#75C298"/>
<path fill-rule="evenodd" clip-rule="evenodd" d="M83.375 230.091C88.29 228.706 125.43 228.134 129.091 228.078C185.359 227.211 180.219 262.664 187.157 286.72C191.494 301.758 183.902 279.163 164.075 272.741C147.866 267.491 143.744 274.024 128.891 262.072C127.406 260.877 124.713 262.128 127.191 264.656C144.451 282.26 176.582 287.577 176.42 299.726C176.366 303.779 123.316 317.543 108.488 288.505C94.7 261.504 99.635 255.606 83.561 232.465C83.452 232.309 83.561 232.465 83.375 230.091Z" fill="#14A19A"/>
<path fill-rule="evenodd" clip-rule="evenodd" d="M223.635 230.141C223.116 230.335 222.596 230.529 222.077 230.722C218.532 244.024 285.15 300.633 227.981 279.99C177.511 261.766 201.92 224.337 195.874 188.754C194.969 183.428 194.412 179.996 199.291 182.283C253.656 207.768 284.319 210.787 265.191 273.764C261.901 284.597 262.268 268.418 254.795 259.969C240.283 243.562 233.8 249.684 223.635 230.139V230.141Z" fill="#A8CB5D"/>
<path fill-rule="evenodd" clip-rule="evenodd" d="M476.096 288.653C471.742 287.47 471.717 287.593 471.393 287.376C465.4 283.357 482.665 289.789 496.711 264.534C508.621 243.121 514.124 245.628 512.764 244.051C507.302 237.714 486.422 268.529 469.152 273.986C463.476 275.78 463.987 272.612 464.928 266.695C474.872 204.19 517.688 221.544 534.093 220.185C549.111 218.941 554.227 215.569 551.957 221.682C530.881 278.442 527.68 301.301 476.094 288.653H476.096Z" fill="#16A099"/>
<path fill-rule="evenodd" clip-rule="evenodd" d="M482.238 184.931C512.456 177.413 504.2 161.626 519.454 151.169C519.837 150.906 537.527 138.779 522.125 146.013C503.049 154.972 479.418 183.279 473.384 175.517C473.067 175.11 471.409 131.765 507.125 125.977C524.171 123.214 550.494 125.947 566.11 119.936C568.884 118.868 568.839 121.935 555.843 155.644C544.108 186.082 530.432 191.717 494.054 188.932C483.68 188.138 482.647 185.842 482.238 184.932V184.931Z" fill="#76C198"/>
<path fill-rule="evenodd" clip-rule="evenodd" d="M315.008 356.707C325.251 330.816 309.174 330.716 310.104 302.717C310.213 299.438 307.894 300.056 307.367 301.837C302.311 318.926 311.786 352.15 302.236 355.196C299.636 356.025 265.549 320.163 281.279 295.835C295.857 273.29 299.607 276.162 313.317 252.895C315.328 249.482 315.779 253.778 335.53 286.445C359.088 325.407 340.578 340.02 317.202 358.168C316.471 357.681 315.739 357.194 315.008 356.707Z" fill="#169F99"/>
<path fill-rule="evenodd" clip-rule="evenodd" d="M452.15 79.7436C437.231 140.632 437.914 155.391 385.976 153.095C375.397 152.627 390.622 151.245 399.75 138.479C406.923 128.448 405.189 119.702 416.882 109.517C419.34 107.377 417.345 105.202 415.116 106.79C396.132 120.318 373.157 167.262 377.128 123.73C380.084 91.3246 403.198 86.1256 406.999 85.2706C428.496 80.4356 429.225 84.1826 449.998 76.4156C452.655 75.4226 452.186 79.4286 452.15 79.7436Z" fill="#A8CA5C"/>
<path fill-rule="evenodd" clip-rule="evenodd" d="M197.093 147.681C178.382 142.836 145.649 135.245 153.009 88.708C156.841 64.482 149.158 57.534 155.173 60.356C213.645 87.786 224.542 94.0671 215.718 133.642C215.539 134.446 212.359 148.706 210.544 142.541C205.449 125.238 204.404 125.278 185.239 111.483C179.223 107.153 177.65 100.395 176.115 100.379C164.567 100.261 215.735 149.258 197.094 147.681H197.093Z" fill="#AACB5C"/>
<path fill-rule="evenodd" clip-rule="evenodd" d="M251.074 48.7903C250.976 48.9643 249.196 48.6673 249.981 50.7313C253.446 59.8383 252.576 59.9213 252.412 69.7393C252.013 93.6563 260.159 93.8023 261.146 97.7303C261.418 98.8133 260.068 99.4743 248.17 92.5813C215.777 73.8163 216.715 58.9173 232.036 9.69533C233.186 6.00133 234.041 9.55632 238.507 14.3573C258.174 35.5033 294.786 43.9143 279.367 81.8353C263.638 120.521 262.9 58.1883 251.075 48.7903H251.074Z" fill="#74C097"/>
<path fill-rule="evenodd" clip-rule="evenodd" d="M115.074 398.849C109.839 399.038 105.406 397.54 88.2872 410.999C74.7462 421.645 72.8382 419.318 72.4782 420.76C69.9212 430.997 97.8102 407.778 118.081 408.721C123.092 408.954 115.558 419.852 114.997 420.664C91.9182 454.047 74.8502 444.197 55.2082 437.345C39.5142 431.87 29.0292 433.555 32.3432 429.887C60.3402 398.895 65.7852 386.774 83.0922 384.865C96.7122 383.363 129.741 399.34 115.074 398.85V398.849Z" fill="#ABCB5E"/>
<path fill-rule="evenodd" clip-rule="evenodd" d="M362.51 78.8409C364.978 65.0539 363.584 65.0699 359.347 51.6359C357.945 47.1909 360.095 38.7739 360.062 38.7329C352.436 29.3099 357.376 92.8419 348.29 84.3859C315.374 53.7569 342.899 30.2959 353.629 17.3409C362.159 7.04188 364.668 -3.9621 367.54 1.4079C379.514 23.7909 390.087 35.5769 386.891 52.6809C384.193 67.1179 352.306 97.6539 362.51 78.8409Z" fill="#75C097"/>
<path fill-rule="evenodd" clip-rule="evenodd" d="M587.103 444.703C590.354 448.91 589.289 449.213 588.907 449.321C583.826 450.764 555.001 454.969 552.043 455.4C518.929 460.23 511.462 431.366 507.299 421.681C502.386 410.249 511.052 425.354 523.174 427.316C537.807 429.684 538.278 426.602 552.143 431.511C552.448 431.619 556.992 430.532 551.219 427.576C538.925 421.28 493.133 413.781 525.979 405.373C566.139 395.092 564.556 416.354 587.102 444.702L587.103 444.703Z" fill="#A7CA5B"/>
<path fill-rule="evenodd" clip-rule="evenodd" d="M73.0186 245.945C71.3686 245.643 62.7806 244.068 52.1526 247.964C37.0156 253.513 36.3536 251.115 35.2946 252.01C25.8476 259.994 88.7597 244.051 72.0247 259.668C42.5207 287.203 25.2656 267.486 16.8336 261.064C3.99365 251.286 -3.00035 251.697 1.23865 248.92C32.8606 228.204 43.0457 226.571 47.0987 225.921C58.3247 224.121 88.6597 251.659 73.0197 245.944L73.0186 245.945Z" fill="#A8C95B"/>
<path fill-rule="evenodd" clip-rule="evenodd" d="M176.737 453.958C176.757 458.29 174.489 455.88 170.124 456.095C164.136 456.389 152.812 466.072 151.493 467.2C138.815 478.04 136.448 475.362 136.337 476.792C135.738 484.547 185.438 452.126 178.919 464.681C160.215 500.702 136.926 493.357 131.075 492.81C101.404 490.034 98.6831 490.72 100.263 488.801C139.838 440.724 147.021 443.831 176.738 453.958H176.737Z" fill="#76C098"/>
<path fill-rule="evenodd" clip-rule="evenodd" d="M584.075 288.661C581.241 288.525 565.036 287.745 552.548 272.41C547.842 266.631 558.224 275.829 572.933 269.362C582.698 265.069 582.704 265.538 593.057 262.684C598.618 261.151 591.549 258.122 572.023 262.502C570.851 262.765 545.362 268.483 559.139 254.782C587.971 226.108 600.19 249.719 626.946 260.067C629.404 261.018 628.436 263.417 601.844 281.411C592.811 287.523 585.598 288.462 584.075 288.661Z" fill="#A8CA5B"/>
<path fill-rule="evenodd" clip-rule="evenodd" d="M552.765 347.089C565.243 355.294 572.977 349.911 579.093 352.669C579.468 352.838 602.806 363.323 584.138 351.647C575.321 346.132 527.034 336.349 569.144 328.12C589.746 324.094 594.244 344.838 615.937 369.802C618.39 372.625 582.725 378.051 579.091 377.628C570.68 376.648 560.518 374.332 548.088 346.723C545.102 340.092 552.489 346.837 552.767 347.09L552.765 347.089Z" fill="#73C096"/>
<path fill-rule="evenodd" clip-rule="evenodd" d="M70.0536 317.504C57.1486 319.721 56.1295 328.119 42.1795 333.914C29.0305 339.376 44.6865 336.373 44.9565 336.265C48.3485 334.912 96.9246 307.012 67.6516 339.347C46.3006 362.932 25.8716 344.601 8.07755 348.863C2.18155 350.275 17.3536 334.142 18.7466 332.446C19.9676 330.961 37.6486 299.219 74.7606 315.057C77.4606 316.209 70.4716 317.429 70.0536 317.502V317.504Z" fill="#75BF98"/>
<path fill-rule="evenodd" clip-rule="evenodd" d="M477.232 478.646C469.343 472.489 437.066 465.604 448.297 460.155C483.179 443.23 489.013 477.983 502.527 492.288C506.554 496.55 502.144 496.141 498.137 497.006C464.848 504.191 459.023 504.36 443.656 473.812C438.192 462.95 447.917 477.205 460.082 477.75C475.884 478.458 475.555 480.507 476.913 480.387C477.02 479.807 477.126 479.227 477.233 478.647L477.232 478.646Z" fill="#74C098"/>
<path fill-rule="evenodd" clip-rule="evenodd" d="M315.009 356.711C315.74 357.198 316.472 357.686 317.203 358.173C316.025 358.37 313.76 359.844 315.009 356.711Z" fill="#99D3C8"/>
<path fill-rule="evenodd" clip-rule="evenodd" d="M408.078 208.742L409.08 209.007C409.112 209.588 409.144 210.17 409.176 210.751C408.478 209.723 408.812 209.783 408.079 208.742H408.078Z" fill="#CEE1A1"/>
</svg>
